<?xml version="1.0" encoding="UTF-8"?>
<svg xmlns="http://www.w3.org/2000/svg" xmlns:xlink="http://www.w3.org/1999/xlink" width="2203" height="2203" viewBox="0 0 2203 2203">
<path fill-rule="nonzero" fill="rgb(99.609375%, 99.609375%, 99.609375%)" fill-opacity="1" d="M 1.527344 0 C 1.121094 0 0.734375 0.160156 0.449219 0.449219 C 0.160156 0.730469 0 1.121094 0 1.53125 L 0 2200.511719 C 0 2201.351562 0.683594 2202.039062 1.527344 2202.039062 L 2200.511719 2202.039062 C 2200.921875 2202.039062 2201.308594 2201.878906 2201.589844 2201.589844 C 2201.878906 2201.304688 2202.039062 2200.914062 2202.039062 2200.511719 L 2202.039062 1.53125 C 2202.039062 0.679688 2201.359375 0 2200.511719 0 Z M 1.527344 0 "/>
<path fill-rule="nonzero" fill="rgb(0%, 0%, 0%)" fill-opacity="1" d="M 784.167969 916.839844 C 782.082031 916.839844 780.085938 917.660156 778.609375 919.140625 C 777.136719 920.609375 776.308594 922.609375 776.308594 924.691406 L 776.308594 956.78125 L 623.015625 983.351562 C 614.128906 984.890625 607.640625 992.609375 607.640625 1001.621094 L 607.640625 1042.628906 L 599.539062 1047.621094 L 599.539062 954.898438 C 599.539062 953.109375 598.09375 951.671875 596.304688 951.671875 L 594.546875 951.660156 L 592.785156 951.671875 C 591.929688 951.660156 591.105469 952.011719 590.5 952.609375 C 589.890625 953.21875 589.550781 954.039062 589.550781 954.898438 L 589.550781 1053.78125 L 585.25 1056.429688 C 581.566406 1058.691406 579.273438 1062.660156 579.148438 1066.988281 L 573.167969 1270.972656 C 573.066406 1274.441406 574.375 1277.804688 576.792969 1280.296875 C 579.214844 1282.789062 582.539062 1284.195312 586.007812 1284.195312 C 588.167969 1284.195312 590.296875 1283.648438 592.1875 1282.609375 L 741.96875 1200.421875 C 745.089844 1198.710938 747.359375 1195.78125 748.238281 1192.328125 L 749.054688 1189.121094 L 749.050781 1189.128906 C 784.816406 1189.121094 820.585938 1189.121094 856.355469 1189.121094 L 856.359375 1189.121094 L 819.992188 1335.238281 C 819.855469 1335.785156 819.789062 1336.34375 819.789062 1336.90625 L 819.789062 1350.558594 L 784.292969 1350.558594 C 783.296875 1350.558594 782.34375 1350.953125 781.640625 1351.65625 C 780.9375 1352.359375 780.542969 1353.3125 780.542969 1354.308594 L 780.542969 1385.828125 L 672.535156 1385.828125 C 671.757812 1385.828125 671.011719 1386.136719 670.460938 1386.683594 C 669.914062 1387.234375 669.605469 1387.980469 669.605469 1388.757812 L 669.605469 1414.46875 L 578.386719 1414.464844 C 576.914062 1414.464844 575.464844 1414.664062 574.070312 1415.046875 L 574.066406 1415.046875 L 464.734375 1442.640625 C 464.746094 1440.570312 464.761719 1438.503906 464.773438 1436.433594 C 464.789062 1434.164062 463.898438 1431.980469 462.296875 1430.367188 C 460.695312 1428.757812 458.519531 1427.851562 456.246094 1427.851562 L 456.242188 1427.851562 C 428.59375 1427.851562 400.949219 1427.851562 373.304688 1427.851562 C 371.554688 1427.851562 369.933594 1428.378906 368.578125 1429.28125 L 368.570312 1429.28125 L 249 1501.3125 C 246.519531 1502.804688 244.964844 1505.457031 244.878906 1508.351562 L 244.515625 1520.21875 L 244.28125 1527.792969 C 244.210938 1530.101562 245.078125 1532.335938 246.683594 1533.992188 C 248.289062 1535.648438 250.5 1536.582031 252.804688 1536.582031 L 455.644531 1536.582031 L 1424.691406 1536.578125 L 1424.839844 1536.582031 C 1424.898438 1536.582031 1424.960938 1536.582031 1425.019531 1536.582031 L 1627.871094 1536.582031 C 1630.179688 1536.582031 1632.378906 1535.648438 1633.988281 1533.992188 C 1635.589844 1532.335938 1636.460938 1530.101562 1636.390625 1527.792969 L 1636.160156 1520.21875 L 1635.800781 1508.351562 C 1635.710938 1505.457031 1634.160156 1502.804688 1631.671875 1501.308594 L 1512.101562 1429.28125 L 1512.089844 1429.28125 C 1510.738281 1428.378906 1509.121094 1427.851562 1507.371094 1427.851562 C 1493.550781 1427.851562 1479.71875 1427.851562 1465.898438 1427.851562 C 1452.078125 1427.851562 1438.25 1427.851562 1424.429688 1427.851562 C 1422.160156 1427.851562 1419.980469 1428.757812 1418.378906 1430.367188 C 1416.78125 1431.980469 1415.878906 1434.164062 1415.898438 1436.433594 C 1415.910156 1438.503906 1415.929688 1440.574219 1415.941406 1442.644531 L 1306.28125 1414.964844 C 1304.96875 1414.636719 1303.628906 1414.46875 1302.289062 1414.46875 L 1211.070312 1414.46875 L 1211.070312 1388.757812 C 1211.070312 1387.140625 1209.761719 1385.828125 1208.140625 1385.828125 L 1100.128906 1385.828125 L 1100.128906 1354.308594 C 1100.128906 1352.238281 1098.449219 1350.558594 1096.378906 1350.558594 L 1060.140625 1350.558594 L 1060.140625 1336.90625 C 1060.140625 1336.34375 1060.070312 1335.785156 1059.941406 1335.238281 L 1014.050781 1150.871094 C 1013.988281 1150.628906 1013.921875 1150.398438 1013.839844 1150.171875 L 1028.050781 1150.171875 C 1036.710938 1150.171875 1043.980469 1144.238281 1046.019531 1136.210938 C 1092.710938 1130.691406 1128.949219 1126.410156 1154.75 1123.359375 C 1157.109375 1123.070312 1159.070312 1121.390625 1159.691406 1119.089844 L 1162.519531 1108.621094 C 1185.128906 1108.621094 1207.730469 1108.621094 1230.328125 1108.621094 C 1231.320312 1108.621094 1232.121094 1107.820312 1232.121094 1106.820312 L 1232.121094 1098.28125 L 1296.078125 1090.558594 C 1298.480469 1090.269531 1300.289062 1088.238281 1300.289062 1085.820312 L 1300.289062 1068.621094 L 1300.28125 1068.621094 C 1339 1068.621094 1375.859375 1068.621094 1410.871094 1068.621094 L 1410.871094 1070.679688 C 1410.871094 1071.300781 1411.121094 1071.898438 1411.558594 1072.339844 C 1412 1072.78125 1412.601562 1073.03125 1413.21875 1073.03125 C 1449.789062 1073.03125 1486.359375 1073.03125 1522.929688 1073.03125 C 1524.230469 1073.03125 1525.289062 1071.96875 1525.289062 1070.679688 L 1525.289062 1068.621094 L 1525.28125 1068.621094 C 1718.679688 1068.621094 1838.601562 1068.621094 1885.039062 1068.621094 L 1885.039062 1070.539062 C 1885.039062 1071.761719 1885.53125 1072.929688 1886.390625 1073.789062 C 1887.25 1074.648438 1888.421875 1075.128906 1889.640625 1075.128906 C 1910.808594 1075.128906 1931.980469 1075.128906 1953.160156 1075.128906 L 1953.171875 1075.128906 C 1955.699219 1075.128906 1957.761719 1073.078125 1957.761719 1070.539062 L 1957.761719 1023.449219 C 1957.761719 1020.910156 1955.710938 1018.859375 1953.171875 1018.859375 L 1889.640625 1018.859375 C 1888.421875 1018.859375 1887.25 1019.339844 1886.390625 1020.199219 C 1885.53125 1021.058594 1885.039062 1022.230469 1885.039062 1023.449219 L 1885.039062 1025.371094 L 1525.289062 1025.371094 L 1525.289062 1023.308594 C 1525.289062 1022.019531 1524.230469 1020.960938 1522.929688 1020.960938 L 1413.21875 1020.960938 C 1412.601562 1020.960938 1412 1021.210938 1411.558594 1021.648438 C 1411.121094 1022.089844 1410.871094 1022.691406 1410.871094 1023.308594 L 1410.871094 1025.359375 L 1300.289062 1025.359375 L 1300.289062 1008.171875 C 1300.289062 1005.75 1298.480469 1003.710938 1296.078125 1003.429688 L 1232.121094 995.710938 L 1232.121094 983.449219 C 1232.121094 982.460938 1231.320312 981.660156 1230.328125 981.660156 L 1202.128906 981.660156 L 1202.128906 969.539062 C 1202.128906 968.789062 1201.519531 968.179688 1200.761719 968.179688 L 1058.058594 968.179688 C 1057.699219 968.179688 1057.351562 968.320312 1057.101562 968.578125 C 1056.839844 968.828125 1056.691406 969.179688 1056.691406 969.539062 L 1056.691406 981.660156 L 1046.589844 981.660156 L 1046.589844 971.949219 C 1046.589844 961.710938 1038.289062 953.398438 1028.050781 953.398438 L 1006.941406 953.410156 L 1006.941406 941.101562 C 1006.941406 940.410156 1006.378906 939.839844 1005.679688 939.839844 L 856.410156 939.839844 L 856.410156 924.691406 C 856.410156 920.351562 852.890625 916.839844 848.550781 916.839844 Z M 864.8125 1155.160156 L 860.480469 1172.558594 L 860.480469 1172.570312 L 812.632812 1172.558594 L 753.265625 1172.558594 L 755.21875 1164.890625 Z M 864.8125 1155.160156 "/>
</svg>
